<svg xmlns="http://www.w3.org/2000/svg" viewBox="0 0 888 1080"><title>Logo-2</title><g id="Layer_1" data-name="Layer 1"><path d="M438.5,878.5A344.53,344.53,0,1,1,573,851.34,343.33,343.33,0,0,1,438.5,878.5Zm0-669C260.12,209.5,115,354.62,115,533S260.12,856.5,438.5,856.5,762,711.38,762,533,616.88,209.5,438.5,209.5Z"/><path d="M695.5,717h-508a9.5,9.5,0,0,1,0-19h508a9.5,9.5,0,0,1,0,19Z"/><path d="M555.5,751h-227a9.5,9.5,0,0,1,0-19h227a9.5,9.5,0,0,1,0,19Z"/><path d="M481.5,786h-78a9.5,9.5,0,0,1,0-19h78a9.5,9.5,0,0,1,0,19Z"/><path d="M444.37,625.6l-10.75-4-10.74,4v-7.94l-124.12-45.9c-17.74-5.64-30.11-23.66-30.11-43.93V371.77c0-14.12,5.8-27.22,15.91-35.94,10.55-9.1,24-12.08,37-8.16l1.06.36,111,41.91,111.72-42.17.33-.1c13-3.92,26.46-.94,37,8.16h0c10.11,8.72,15.91,21.82,15.91,35.94V527.83c0,20.28-12.37,38.29-30.11,43.93l-124.11,45.9ZM310.33,346a19.35,19.35,0,0,0-12.71,5c-5.7,4.91-9,12.49-9,20.79V527.83c0,11.7,6.7,21.94,16.31,24.92l.5.17L433.62,600.3,562,552.83l.26-.08c9.6-3,16.3-13.22,16.3-24.92V371.77c0-8.3-3.27-15.87-9-20.79h0c-5.26-4.54-11.6-6-17.88-4.25L433.62,391.32l-118-44.55A18.93,18.93,0,0,0,310.33,346Z"/><path d="M433.62,717.05a11,11,0,0,1-11-11V464.8a11,11,0,0,1,22,0V706.05A11,11,0,0,1,433.62,717.05Z"/><path d="M395.94,633.45H264.39a48.74,48.74,0,0,1-48.68-48.68V419.71A48.74,48.74,0,0,1,264.39,371h25.26v156.8c0,11.26,6.41,21.11,15.6,24l.56.19,137.75,50.94-9.31,11.87A48.42,48.42,0,0,1,395.94,633.45ZM264.39,393a26.71,26.71,0,0,0-26.68,26.68V584.77a26.71,26.71,0,0,0,26.68,26.68H395.94a27.06,27.06,0,0,0,5.64-.6L298.44,572.71c-18.15-5.78-30.79-24.18-30.79-44.88V393Z"/><path d="M594.73,666.12h-1.35l-132.15-32.7a42.79,42.79,0,0,1-32.81-17.27l-8.7-11.77L562,551.79c9.19-2.84,15.6-12.69,15.6-24V399.13l18.57,4.59a42.62,42.62,0,0,1,41.13,42.54V623.55A42.61,42.61,0,0,1,594.73,666.12ZM464,611.45l1.28.32,130.62,32.31a20.58,20.58,0,0,0,19.36-20.53V446.26a20.6,20.6,0,0,0-15.7-20V527.83c0,20.7-12.64,39.1-30.79,44.88Z"/></g></svg>