<svg xmlns="http://www.w3.org/2000/svg" viewBox="0 0 1026 1080"><title>logos</title><g id="Layer_1" data-name="Layer 1"><path d="M329.69,805.18,341.6,809q-2.75,10-9.11,14.8t-16.17,4.83q-12.1,0-19.92-8.28t-7.8-22.64q0-15.2,7.84-23.59t20.63-8.41q11.16,0,18.14,6.6,4.16,3.9,6.22,11.21l-12.16,2.9a12.56,12.56,0,0,0-12.82-10.21,13.85,13.85,0,0,0-11,4.86q-4.22,4.85-4.21,15.73,0,11.54,4.15,16.43a13.46,13.46,0,0,0,10.79,4.9,12.36,12.36,0,0,0,8.43-3.11Q328.16,811.86,329.69,805.18Z"/><path d="M349.65,797.5q0-9.29,2.78-15.6a28.79,28.79,0,0,1,5.67-8.34,23.54,23.54,0,0,1,7.86-5.48,33.34,33.34,0,0,1,13.12-2.41q13.44,0,21.52,8.34t8.07,23.2q0,14.74-8,23.06t-21.41,8.32q-13.58,0-21.59-8.28T349.65,797.5Zm12.66-.41q0,10.33,4.77,15.67a15.59,15.59,0,0,0,12.12,5.33,15.41,15.41,0,0,0,12.06-5.29q4.71-5.29,4.71-15.88t-4.59-15.6a17,17,0,0,0-24.42.06Q362.31,786.59,362.31,797.09Z"/><path d="M416.85,811.33V799.66h22.91v11.67Z"/><path d="M446.61,827.55V766.71h25.85q9.75,0,14.18,1.64a14,14,0,0,1,7.07,5.83,17.53,17.53,0,0,1,2.66,9.59,16.24,16.24,0,0,1-4,11.31q-4,4.45-12,5.62a28.4,28.4,0,0,1,6.57,5.11,68.63,68.63,0,0,1,7,9.87l7.43,11.87H486.62l-8.89-13.24a85.55,85.55,0,0,0-6.47-8.94,9.34,9.34,0,0,0-3.69-2.53,20.2,20.2,0,0,0-6.19-.69h-2.49v25.4Zm12.28-35.11H468q8.83,0,11-.75a6.53,6.53,0,0,0,3.44-2.57,7.93,7.93,0,0,0,1.25-4.56,7.31,7.31,0,0,0-1.64-5,7.52,7.52,0,0,0-4.63-2.39q-1.49-.21-9-.21h-9.59Z"/><path d="M505.46,797.5q0-9.29,2.78-15.6a28.56,28.56,0,0,1,5.66-8.34,23.67,23.67,0,0,1,7.87-5.48,33.29,33.29,0,0,1,13.11-2.41q13.46,0,21.52,8.34t8.08,23.2q0,14.74-8,23.06t-21.42,8.32q-13.57,0-21.58-8.28T505.46,797.5Zm12.66-.41q0,10.33,4.77,15.67a16.42,16.42,0,0,0,24.18,0q4.71-5.29,4.71-15.88t-4.59-15.6a17,17,0,0,0-24.43.06Q518.13,786.59,518.12,797.09Z"/><path d="M571.57,797.5q0-9.29,2.78-15.6a28.79,28.79,0,0,1,5.67-8.34,23.54,23.54,0,0,1,7.86-5.48A33.34,33.34,0,0,1,601,765.67q13.44,0,21.52,8.34t8.07,23.2q0,14.74-8,23.06t-21.41,8.32q-13.57,0-21.59-8.28T571.57,797.5Zm12.66-.41q0,10.33,4.77,15.67a15.59,15.59,0,0,0,12.12,5.33,15.41,15.41,0,0,0,12.06-5.29q4.71-5.29,4.71-15.88t-4.58-15.6a17,17,0,0,0-24.43.06Q584.23,786.59,584.23,797.09Z"/><path d="M653.88,827.55V777H635.82V766.71h48.35V777h-18v50.55Z"/><path d="M689,807.76l12-1.17q1.08,6,4.38,8.84t8.9,2.83q5.94,0,8.95-2.51a7.51,7.51,0,0,0,3-5.88,5.55,5.55,0,0,0-1.27-3.67,10.14,10.14,0,0,0-4.42-2.64q-2.16-.73-9.84-2.65-9.87-2.45-13.86-6a16,16,0,0,1-3-20.94,16.48,16.48,0,0,1,7.6-6.16,30.44,30.44,0,0,1,12-2.12q11.46,0,17.25,5a17.76,17.76,0,0,1,6.08,13.41l-12.29.54q-.78-4.7-3.38-6.75t-7.78-2q-5.35,0-8.39,2.2a4.43,4.43,0,0,0-2,3.78,4.66,4.66,0,0,0,1.83,3.69q2.32,1.95,11.29,4.07T729.31,794a17.08,17.08,0,0,1,6.72,6.18,19.17,19.17,0,0,1-.47,19.49,17.45,17.45,0,0,1-8.22,6.78,34.48,34.48,0,0,1-13.24,2.22q-11.54,0-17.72-5.33T689,807.76Z"/><path d="M767.5,664h-508a9.5,9.5,0,0,1,0-19h508a9.5,9.5,0,0,1,0,19Z"/><path d="M627.5,698h-227a9.5,9.5,0,0,1,0-19h227a9.5,9.5,0,0,1,0,19Z"/><path d="M553.5,733h-78a9.5,9.5,0,0,1,0-19h78a9.5,9.5,0,0,1,0,19Z"/><path d="M516.37,572.6l-10.75-4-10.74,4v-7.94l-124.12-45.9c-17.75-5.64-30.11-23.66-30.11-43.93V318.77c0-14.12,5.8-27.22,15.91-35.94,10.55-9.1,24-12.08,37-8.16l1.06.36,111,41.91,111.72-42.17.33-.1c13-3.91,26.46-.94,37,8.16h0c10.11,8.72,15.91,21.82,15.91,35.94V474.83c0,20.28-12.37,38.29-30.11,43.93l-124.11,45.9ZM382.33,293a19.35,19.35,0,0,0-12.71,5c-5.7,4.92-9,12.49-9,20.79V474.83c0,11.7,6.7,21.94,16.31,24.92l.5.17,128.16,47.39L634,499.83l.26-.08c9.6-3,16.3-13.22,16.3-24.92V318.77c0-8.3-3.27-15.87-9-20.79-5.26-4.54-11.6-6-17.88-4.25L505.62,338.32l-118-44.55A18.93,18.93,0,0,0,382.33,293Z"/><path d="M505.62,664.05a11,11,0,0,1-11-11V411.8a11,11,0,0,1,22,0V653.05A11,11,0,0,1,505.62,664.05Z"/><path d="M467.94,580.45H336.39a48.74,48.74,0,0,1-48.68-48.68V366.71A48.74,48.74,0,0,1,336.39,318h25.26v156.8c0,11.26,6.41,21.11,15.6,24l.56.19,137.75,50.94-9.31,11.87A48.42,48.42,0,0,1,467.94,580.45ZM336.39,340a26.71,26.71,0,0,0-26.68,26.68V531.77a26.71,26.71,0,0,0,26.68,26.68H467.94a27.06,27.06,0,0,0,5.64-.6L370.44,519.71c-18.15-5.78-30.79-24.18-30.79-44.88V340Z"/><path d="M666.72,613.12h-1.34l-132.15-32.7a42.79,42.79,0,0,1-32.81-17.27l-8.7-11.77L634,498.79c9.19-2.84,15.6-12.7,15.6-24V346.13l18.57,4.59a42.62,42.62,0,0,1,41.13,42.54V570.55A42.62,42.62,0,0,1,666.72,613.12ZM536,558.45l131.89,32.63a20.59,20.59,0,0,0,19.37-20.53V393.26a20.6,20.6,0,0,0-15.7-20V474.83c0,20.7-12.64,39.1-30.79,44.88Z"/></g></svg>